<svg width="24" height="22" viewBox="0 0 24 22" fill="none" xmlns="http://www.w3.org/2000/svg">
<path fill-rule="evenodd" clip-rule="evenodd" d="M12 0C6.48 0 2 4.48 2 10C2 15.52 6.48 20 12 20C17.52 20 22 15.52 22 10C22 4.48 17.52 0 12 0ZM7.07 16.28C7.5 15.38 10.12 14.5 12 14.5C13.88 14.5 16.51 15.38 16.93 16.28C15.57 17.36 13.86 18 12 18C10.14 18 8.43 17.36 7.07 16.28ZM18.36 14.83C16.93 13.09 13.46 12.5 12 12.5C10.54 12.5 7.07 13.09 5.64 14.83C4.62 13.49 4 11.82 4 10C4 5.59 7.59 2 12 2C16.41 2 20 5.59 20 10C20 11.82 19.38 13.49 18.36 14.83ZM12 4C10.06 4 8.5 5.56 8.5 7.5C8.5 9.44 10.06 11 12 11C13.94 11 15.5 9.44 15.5 7.5C15.5 5.56 13.94 4 12 4ZM12 9C11.17 9 10.5 8.33 10.5 7.5C10.5 6.67 11.17 6 12 6C12.83 6 13.5 6.67 13.5 7.5C13.5 8.33 12.83 9 12 9Z" fill="white"/>
<mask id="mask0_1_50" style="mask-type:luminance" maskUnits="userSpaceOnUse" x="2" y="0" width="20" height="20">
<path fill-rule="evenodd" clip-rule="evenodd" d="M12 0C6.48 0 2 4.48 2 10C2 15.52 6.48 20 12 20C17.52 20 22 15.52 22 10C22 4.48 17.52 0 12 0ZM7.07 16.28C7.5 15.38 10.12 14.5 12 14.5C13.88 14.5 16.51 15.38 16.93 16.28C15.57 17.36 13.86 18 12 18C10.14 18 8.43 17.36 7.07 16.28ZM18.36 14.83C16.93 13.09 13.46 12.5 12 12.5C10.54 12.5 7.07 13.09 5.64 14.83C4.62 13.49 4 11.82 4 10C4 5.59 7.59 2 12 2C16.41 2 20 5.59 20 10C20 11.82 19.38 13.49 18.36 14.83ZM12 4C10.06 4 8.5 5.56 8.5 7.5C8.5 9.44 10.06 11 12 11C13.94 11 15.5 9.44 15.5 7.5C15.5 5.56 13.94 4 12 4ZM12 9C11.17 9 10.5 8.33 10.5 7.5C10.5 6.67 11.17 6 12 6C12.83 6 13.5 6.67 13.5 7.5C13.5 8.33 12.83 9 12 9Z" fill="white"/>
</mask>
<g mask="url(#mask0_1_50)">
</g>
</svg>
